<svg xmlns="http://www.w3.org/2000/svg" viewBox="0 0 32 50">
  <style>
    path {
      fill: #1a1f24; <!-- set icon color for light mode -->
    }

    @media (prefers-color-scheme: dark) {
      path {
        fill: #ececec; <!-- set icon color for dark mode -->
      }
    }
  </style>
<path d="M28.364 43.137c-.19.36-.43.687-.696.991-.102.114-.184.268-.368.287-.027.003-.074.082-.067.097.09.141-.035.18-.107.25-.084.082-.179.159-.243.253-.154.238-.386.401-.597.57-.497.398-.984.81-1.538 1.134-.33.193-.649.406-.962.624-.102.07-.199.027-.288.047-.075.017-.105.161-.224.198-.13.042-.248.121-.373.181-.094.047-.189.099-.29.134-.284.094-.567.186-.808.369a.384.384 0 0 1-.117.052c-.403.134-.808.25-1.2.413-.224.094-.473.13-.709.191a.954.954 0 0 0-.179.06c-.067.032-.116.024-.169-.03a.342.342 0 0 0-.126-.087c-.1-.035-.16.035-.15.161.003.02 0 .04 0 .055-.29.05-.581.123-.874.138-.212.01-.428-.012-.634.045-.313.084-.629.09-.947.042a2.706 2.706 0 0 0-.315-.025.437.437 0 0 0-.182.03.812.812 0 0 1-.437.067c-.211-.017-.425-.042-.636-.062-.043-.005-.085-.017-.127-.015-.74.04-1.461-.129-2.195-.19-.283-.023-.564-.122-.837-.209a5.745 5.745 0 0 0-.676-.176c-.184-.034-.355-.138-.532-.213-.047-.02-.1-.069-.14-.061-.173.034-.315-.045-.459-.11-.37-.168-.74-.331-1.1-.52a14.27 14.27 0 0 1-1.052-.609c-.348-.225-.676-.478-1.014-.72-.346-.248-.7-.489-1.036-.751-.319-.25-.62-.523-.985-.71-.074-.038-.136-.102-.198-.16-.015-.014-.025-.056-.015-.076.047-.087-.013-.129-.072-.141-.174-.033-.274-.159-.373-.278-.224-.27-.435-.552-.654-.827-.06-.074-.139-.131-.201-.203-.3-.342-.602-.681-.895-1.028a8.3 8.3 0 0 1-.442-.58.87.87 0 0 1-.144-.282.938.938 0 0 0-.236-.446c-.058-.06-.087-.146-.132-.218-.037-.06-.042-.111.002-.175.015-.02-.002-.1-.022-.107-.199-.074-.244-.255-.293-.426-.092-.315-.231-.614-.291-.941-.022-.124-.092-.238-.142-.357a4.216 4.216 0 0 1-.335-1.543c-.01-.35-.072-.698-.102-1.048-.017-.21-.017-.423-.025-.636-.002-.042.015-.09.003-.126-.082-.25-.055-.503-.033-.758.013-.144-.04-.295-.057-.441-.012-.107-.035-.213-.022-.317a1.454 1.454 0 0 0-.008-.476c-.04-.208-.005-.416-.002-.624.002-.213-.018-.426-.015-.639.002-.265.037-.528-.037-.79-.075-.26-.015-.528-.018-.793-.002-.23.033-.458-.025-.688-.02-.08.015-.169.015-.253-.002-.19-.017-.381-.02-.57a6.571 6.571 0 0 1 .013-.443c.005-.094.04-.193.02-.282-.07-.305-.062-.614-.065-.921-.002-.362.037-.724-.052-1.08-.003-.01-.005-.023-.003-.032.073-.26.05-.523.028-.788-.01-.122.032-.25.007-.367-.06-.277.065-.557-.037-.84-.052-.14-.017-.316-.022-.475-.008-.233 0-.465-.025-.696-.013-.109.107-.196.027-.305.003-.316-.122-.626-.06-.946.04-.198.018-.391.005-.59-.022-.316 0-.633.003-.953l.015-1.21c0-.065.005-.13.015-.192.027-.178.104-.364.077-.53-.033-.185.007-.356.005-.532 0-.116-.003-.233-.015-.35a1.16 1.16 0 0 1 .035-.505.563.563 0 0 0 .012-.25c-.022-.213-.035-.423.025-.634.022-.079.012-.168.02-.252.022-.134.04-.27.052-.407.01-.116.007-.232.025-.346.01-.07.06-.134.062-.203.002-.057-.055-.12-.055-.176.005-.181.025-.362.042-.54.018-.181.048-.36.063-.538.044-.572.099-1.144.29-1.691a.24.24 0 0 0-.002-.181.412.412 0 0 1-.008-.245 2.53 2.53 0 0 0 .092-.563c.02-.364.13-.708.274-1.045.057-.136.102-.28.151-.418.023-.06.035-.124.065-.181.308-.582.527-1.211.924-1.749.19-.255.353-.53.537-.79.092-.129.221-.233.304-.366.176-.29.452-.506.613-.813.097-.183.244-.356.403-.49.224-.186.385-.424.591-.624.075-.075.15-.151.232-.218.216-.174.434-.345.65-.515.018-.013.04-.023.05-.04.286-.406.721-.649 1.081-.973.167-.152.368-.29.602-.35.062-.015.134-.034.174-.076.233-.243.557-.35.82-.55.241-.184.512-.302.823-.302a.184.184 0 0 0 .179-.11c.096-.183.268-.26.452-.331.206-.08.4-.2.611-.268.477-.153.96-.297 1.444-.42.276-.073.554-.174.85-.13a.137.137 0 0 0 .062-.01c.438-.168.905-.133 1.357-.193.723-.094 1.447-.077 2.17-.017.266.022.534.015.8.03.221.012.445.03.663.064.41.062.82.134 1.23.213.125.025.24.087.363.119.165.045.331.074.497.111.281.067.557.142.803.305a.403.403 0 0 0 .115.055c.43.104.827.282 1.22.485.395.206.803.389 1.165.656.301.22.637.392.932.617.286.22.594.409.878.634.28.223.554.456.85.661.161.114.285.285.422.431.16.171.345.317.46.528.035.062.097.111.154.16.211.18.417.36.569.595.022.035.052.077.087.09.258.101.348.366.532.537-.015.18.151.228.24.332.076.089.135.19.197.287.11.169.212.344.326.508.042.062.082.111.102.19.037.154.092.305.26.377.033.012.073.064.073.097-.008.128.044.22.146.297.03.022.058.074.058.111.005.228.183.357.283.533.134.238.313.456.385.728.027.102.09.193.127.292.07.179.136.357.204.535.01.03.01.067.024.092.182.272.19.6.286.899.032.101.085.196.117.295.027.079.06.166.05.245-.013.089-.008.139.084.168.095.03.117.11.134.198.055.26.112.52.182.778.11.416.144.837.154 1.266.005.22.037.438.04.659.002.356.047.715-.047 1.072-.035.136.01.292.022.44.005.063.04.132.027.187-.074.285-.007.572-.015.857-.01.32.015.639-.007.953-.023.29.022.57.015.852-.005.287.015.572.017.86 0 .052.005.111-.012.158-.055.136-.03.27-.005.409a.802.802 0 0 1-.04.47.614.614 0 0 0-.032.342c.034.295.052.592.072.89.005.061-.018.126-.025.188-.008.094-.025.19-.018.284.015.171.043.34 0 .508a.14.14 0 0 0 0 .065c.075.336.003.678.033 1.017a.542.542 0 0 1-.005.157c-.047.198-.032.398-.013.599.013.136.028.28-.002.411-.037.161-.03.317-.017.476.04.463.04.926-.028 1.39a1.19 1.19 0 0 0 .02.537.648.648 0 0 1-.015.438c-.035.092-.06.18-.02.28.07.163.043.334.043.505 0 .362-.003.723.01 1.082.004.147.064.293.069.441.02.436.035.872.03 1.308-.005.52-.03 1.04-.057 1.56a6.378 6.378 0 0 1-.202 1.261c-.114.446-.174.9-.213 1.355-.02.223-.045.438-.17.639-.056.091-.062.225-.059.337.005.143-.003.27-.092.391-.032.045-.037.119-.035.18.01.293-.035.568-.233.8-.038.043-.035.117-.053.177-.047.163-.094.324-.139.488-.015.05-.03.099-.03.15 0 .083-.027.147-.104.181-.134.063-.194.16-.243.305-.05.149-.08.295-.115.446-.044.18-.156.347-.243.515-.055.104-.135.196-.177.302-.146.367-.363.696-.554 1.04-.062.112-.12.226-.176.34-.053.106-.097.215-.21.275a.072.072 0 0 1-.02-.01c.01 0 .018 0 .026.002ZM.333 27.54c0 .007 0 .017.003.024.002.005.01.01.014.015a.419.419 0 0 0-.022-.034c-.007-.005-.012-.013-.02-.015-.005-.003-.012-.003-.02-.003a.192.192 0 0 1 .045.013Zm1.732-5.94c0 .065-.007.13.003.191.054.372.032.74-.005 1.11a1.617 1.617 0 0 0-.005.346c.015.137.062.27.08.407.01.079.022.198-.023.24-.16.146-.14.285-.055.453.028.055.025.124.028.188.007.288.052.573-.025.857-.013.05-.005.107-.003.159.01.275.067.557.023.822-.05.292.087.575.012.852-.06.226-.01.441-.002.661.005.159-.003.317-.003.476 0 .18-.104.376.035.552.02.025-.003.082-.008.124-.02.275-.062.55-.054.825.01.275.064.547.017.822-.017.104-.01.21-.022.315-.023.178-.057.351.025.532.034.08.01.186.007.283-.002.18-.012.361-.01.54.003.126.023.255.03.38.022.402-.01.8.017 1.205.025.346-.015.696.015 1.045.035.411.028.825.192 1.216.024.057.024.124.03.188.064.634.106 1.268.278 1.89.1.357.161.726.29 1.075.078.208.132.438.259.612.191.265.323.58.592.787.014.013.024.035.037.052.276.416.549.835.825 1.251a.68.68 0 0 0 .149.166c.328.248.564.577.81.897.045.059.082.123.134.175.256.255.515.51.776.763.228.223.457.444.75.585.038.017.072.047.107.072.651.448 1.302.894 1.949 1.344.362.253.748.451 1.165.595.303.104.607.206.902.324.318.13.656.191.987.27.425.102.86.144 1.29.218.42.075.85.04 1.265.151.04.01.084.003.127.005.288.02.574.043.862.062.074.005.149.01.224.003.156-.02.313-.05.47-.077.17.188.29-.109.452-.047.037.015.084.007.126.005.065-.005.137.005.19-.022.183-.092.372-.067.563-.06.085.003.174.012.256-.002.47-.092.952-.132 1.402-.31.05-.02.104-.025.157-.035.218-.042.444-.069.658-.13.378-.11.76-.206 1.099-.424.072-.045.151-.077.226-.117.141-.074.283-.146.42-.225.174-.102.328-.226.524-.3.194-.074.385-.173.515-.357a.508.508 0 0 1 .2-.15c.29-.137.555-.295.774-.538.119-.134.273-.235.415-.347.117-.091.253-.16.358-.265.348-.344.686-.698 1.024-1.05.067-.07.141-.136.18-.22.252-.51.655-.92.95-1.4.137-.225.299-.433.396-.68.034-.09.096-.167.141-.249a6.52 6.52 0 0 0 .164-.31c.04-.074.062-.16.112-.227a.808.808 0 0 0 .154-.379.937.937 0 0 1 .169-.409c.127-.185.29-.359.268-.614-.002-.04.025-.08.04-.119.045-.129.092-.257.132-.389.067-.225.124-.45.196-.673.092-.283.192-.563.288-.845.184-.535.294-1.09.406-1.642.05-.24.08-.486.092-.728.017-.36.012-.72.01-1.083 0-.168-.023-.336-.03-.507-.003-.094.005-.191.01-.285.002-.062.015-.126.007-.188a7.045 7.045 0 0 1-.017-.887c.015-.595.047-1.189.01-1.783-.023-.35.084-.696.027-1.048a.413.413 0 0 1 .037-.218c.043-.094.03-.183.015-.277a5.911 5.911 0 0 1-.06-1.241c.023-.37.06-.74-.01-1.112-.014-.082.006-.169.006-.255.002-.149.002-.295.002-.444 0-.084-.012-.17-.01-.255.013-.404.025-.807.04-1.209.015-.42-.072-.847.032-1.268.008-.03.003-.064 0-.096-.017-.275-.04-.55-.052-.825-.005-.126.007-.253.012-.381.003-.095.005-.191.003-.285 0-.255-.008-.508-.003-.76.003-.107-.012-.231.038-.313.067-.106.07-.18.01-.277-.015-.025-.013-.062-.013-.094.005-.54.01-1.083.018-1.622 0-.02.012-.04.02-.06.007-.002.017-.002.024-.005.005-.002.01-.01.015-.015-.012.008-.025.015-.037.025-.013-.027-.037-.057-.037-.084.007-.164.022-.327.035-.49a.042.042 0 0 1 .01-.02.072.072 0 0 0-.006.022c-.015-.062-.057-.131-.04-.18.093-.273-.056-.55.035-.818-.119-.374.065-.756-.024-1.13-.005-.02.007-.042.007-.062-.01-.371-.017-.74-.032-1.112-.003-.062-.035-.121-.052-.183-.105-.334-.212-.669-.313-1.003-.055-.183-.08-.377-.147-.555-.132-.347-.281-.686-.425-1.028-.033-.079-.08-.153-.095-.235-.03-.161-.104-.3-.188-.436a1.09 1.09 0 0 1-.115-.228 1.595 1.595 0 0 0-.306-.52c-.052-.064-.109-.134-.131-.213a.752.752 0 0 0-.239-.369.851.851 0 0 1-.141-.17c-.068-.107-.12-.226-.19-.33-.086-.132-.19-.255-.28-.384-.127-.183-.246-.372-.373-.555a3.66 3.66 0 0 0-.713-.802c-.065-.052-.112-.127-.172-.189-.176-.183-.35-.369-.534-.542-.191-.183-.407-.342-.594-.53a6.21 6.21 0 0 0-.862-.708c-.303-.216-.614-.421-.907-.652-.234-.183-.522-.295-.709-.54-.343-.19-.686-.389-1.034-.572-.159-.084-.33-.149-.497-.215-.295-.122-.589-.253-.89-.36-.26-.091-.534-.146-.8-.222-.325-.095-.646-.199-.989-.233-.412-.042-.82-.136-1.23-.206-.084-.015-.171-.012-.256-.02-.084-.007-.174-.002-.253-.027-.219-.072-.44-.062-.664-.03-.136.02-.276.038-.412.042-.105.005-.212-.014-.316-.022l.01-.025-.008.028c-.072.012-.146.04-.218.034-.482-.027-.95.104-1.424.154-.42.042-.83.168-1.245.257l-.028-.007c.01.003.02.003.03.005-.161.045-.318.116-.497.045-.045-.018-.12.022-.171.05-.092.049-.18.108-.266.165-.152.1-.309.19-.45.302-.346.273-.753.439-1.13.654-.212.121-.411.268-.657.317-.017.005-.035.025-.05.04-.273.29-.658.43-.934.718-.023.022-.055.045-.082.047-.167.008-.256.136-.368.23-.104.09-.206.186-.313.273-.273.22-.56.426-.823.656-.417.364-.83.728-1.193 1.154-.35.414-.725.803-1.014 1.266-.05.08-.129.139-.19.21-.07.08-.182.152-.2.243-.04.213-.184.354-.288.523-.05.08-.085.168-.114.26-.12.364-.202.738-.373 1.085a3.276 3.276 0 0 0-.298.904c-.043.25-.065.503-.15.75-.074.218-.104.454-.154.681-.017.082-.024.169-.044.25-.095.387-.102.776-.097 1.172.005.317-.042.634-.005.954.002.02-.01.042-.013.061-.01.117-.017.23-.03.347-.03.28.03.565-.052.845a.574.574 0 0 0 .038.404.774.774 0 0 1 .03.497 1.47 1.47 0 0 0-.04.377c.007.282.112.562.007.847-.015.044.013.104.015.156.005.097.017.193.008.287-.048.453.057.912-.043 1.365a.048.048 0 0 0 .003.032c.077.243.01.476-.023.716-.02.156-.074.334.018.495.007.015.007.06.007.104ZM15.582 1.151c.008.005.018.008.025.012.005-.007.008-.017.013-.024-.008-.005-.018-.013-.025-.01-.005.002-.008.015-.013.022Zm14.275 27.297-.024-.005.007.022.017-.017ZM28.155 7.066a.732.732 0 0 0-.035-.028c0 .01-.002.023.003.025.005.008.017.003.032.003Zm2.701 8.676-.022-.008c-.002.008-.007.018-.005.02.005.005.013.005.02.008l.008-.02Zm-1.011-6.066-.017-.012-.003.02.02-.008Zm-2.41 34.487-.016.017.02.005-.005-.022Z"/><path d="M23.166 21.852c.015.146.033.293.045.441.003.03.005.082-.012.092-.18.101-.087.193-.005.3.027.034.017.104.017.156.003.361-.002.723.008 1.084.01.372.034.741.05 1.113.002.084-.006.17-.003.255 0 .126-.02.26.01.379.07.284.04.57.05.854.004.136-.003.275-.006.411-.002.149-.005.297-.005.444 0 .094-.01.19.008.282.03.163-.072.33.01.49-.062.179.002.357 0 .533-.005.369.09.733.025 1.107-.023.131.007.275.03.409.067.378.101.755.032 1.139a.879.879 0 0 0-.003.255c.028.253.07.505.095.758.017.19.017.381.022.575.005.148-.102.225-.204.302-.178.133-.357.267-.531.408-.43.35-.85.711-1.285 1.05-.284.22-.525.496-.825.687-.314.195-.525.495-.818.708-.286.205-.567.416-.837.639-.247.2-.475.426-.721.629-.211.178-.435.342-.654.513-.042.032-.094.057-.124.096-.16.206-.37.352-.577.5-.017-.002-.032-.007-.05-.01l.023.043c-.296.26-.572.54-.92.738-.119.067-.246.151-.318.262-.116.174-.268.186-.444.181-.473-.01-.935-.094-1.397-.17a9.846 9.846 0 0 1-1.911-.526c-.617-.237-1.218-.512-1.76-.904-.345-.25-.7-.483-1.036-.745a5.65 5.65 0 0 1-1.049-1.073c-.196-.262-.348-.56-.504-.85-.09-.165-.058-.254.111-.378.266-.196.54-.38.808-.572.256-.184.547-.312.793-.516.236-.195.51-.346.768-.52.76-.51 1.518-1.023 2.279-1.535.01-.005.017-.015.025-.02.355-.2.278-.218.554.055.037.037.072.079.112.113.213.194.23.181.03.471-.092.131-.212.24-.314.362-.166.2-.166.287-.015.51.12.176.227.359.348.535a4.965 4.965 0 0 0 1.844 1.63c.246.126.512.21.786.262.26.05.52.116.778.176l-.015.025.01-.028c.159.02.318.048.477.052a.711.711 0 0 0 .278-.042c.15-.057.288-.136.433-.205a1.45 1.45 0 0 0 .385-.278c.156-.153.345-.28.537-.393a.562.562 0 0 0 .29-.498c.01-.2.003-.404.003-.62.055-.002.107.003.151-.014.035-.013.075-.052.08-.087.005-.03-.025-.092-.05-.097-.211-.047-.196-.195-.159-.349.035-.146.015-.285-.007-.433a4.586 4.586 0 0 1-.045-1.33c.052-.015.045-.035.005-.057-.08-.203-.124-.407-.005-.612.012-.022.025-.067.012-.084-.144-.208-.074-.448-.092-.669-.024-.314 0-.634 0-.951 0-.074.015-.161-.017-.218-.11-.183-.062-.37-.04-.557a1.96 1.96 0 0 0-.002-.382c-.02-.208-.105-.41-.015-.626.03-.072-.09-.154-.174-.117a4.236 4.236 0 0 0-.487.238c-.246.146-.485.307-.726.463l-2.296 1.504c-.445.292-.89.582-1.337.871-.194.127-.393.248-.59.372l-.014-.017a.06.06 0 0 1 .012.017c-.176.09-.355.05-.53-.005-.16-.052-.315-.129-.471-.193-.05-.02-.097-.057-.147-.057-.345-.005-.619-.208-.922-.325-.097-.037-.174-.121-.258-.183-.266-.19-.54-.374-.798-.575-.107-.084-.194-.195-.283-.302a5.495 5.495 0 0 1-.336-.426 6.558 6.558 0 0 1-.293-.49c-.057-.102-.095-.216-.16-.312a2.036 2.036 0 0 1-.278-.674c-.054-.225-.164-.436-.24-.656-.15-.431-.316-.86-.321-1.328a.27.27 0 0 0-.033-.124c-.094-.163-.106-.346-.121-.525-.043-.497-.102-.993-.087-1.493.017-.562.03-1.127.097-1.687a8.273 8.273 0 0 1 .43-1.793c.126-.362.26-.718.47-1.043.278-.438.553-.877.83-1.315.168-.27.33-.542.501-.812.067-.107.15-.206.224-.307.045-.06.094-.12.124-.184.187-.401.465-.735.77-1.047.334-.345.65-.711 1.022-1.006.303-.238.544-.535.835-.78.251-.213.497-.431.738-.654.124-.114.236-.245.356-.367.067-.066.141-.128.21-.193.056-.05.125-.091.165-.15a1.02 1.02 0 0 1 .273-.263c.087-.06.157-.144.236-.216l.376-.344.164-.151c.144-.139.283-.283.435-.414a.704.704 0 0 1 .474-.166c.457-.002.915-.022 1.372-.027.604-.008 1.213.03 1.817-.064.196-.03.402-.02.604-.018.48.005.959.037 1.436.022.318-.01.634-.012.954-.004.212.004.425-.028.637-.045.164-.012.26.062.315.213.043.121.09.238.137.357.057.148.022.267-.11.361-.166.117-.33.236-.491.357-.562.423-1.121.852-1.685 1.273-.547.409-1.099.807-1.648 1.211-.085.062-.164.131-.246.2-.408.342-.87.469-1.394.342-.02-.004-.045-.024-.058-.017-.268.146-.576-.06-.845.097-.024.015-.062.007-.094.01-.166.022-.303-.228-.487-.055-.169.018-.338.037-.507.047a1.946 1.946 0 0 1-.318-.015c-.383-.042-.76.062-1.143.052-.14-.005-.279-.002-.415-.01-.13-.007-.261-.096-.39.025-.025.025-.1-.005-.155-.01-.174-.012-.189 0-.248.174-.003.01-.008.02-.01.03-.037.304-.137.596-.224.889-.017.062-.012.14-.05.18-.156.156-.141.367-.188.555-.08.317-.147.64-.219.959-.008.032-.027.064-.02.091.055.218-.032.424-.07.627-.047.265-.05.528-.05.793 0 .255.046.515-.004.76-.077.386.032.763-.01 1.142-.008.072.015.146.03.22.01.052.05.112.032.154-.082.21.05.391.07.587.01.104.017.208.024.312.003.027 0 .06.01.084.12.265.122.55.132.832l-.027.01.025-.012c.097.233.246.45.233.72-.002.03.013.062.025.09.127.257.249.515.383.767.134.253.28.5.42.75.213.382.482.727.8 1.024.194.18.398.357.614.51.154.109.335.18.507.268.189.096.385.185.569.292a.427.427 0 0 0 .505-.018c.417-.28.84-.544 1.262-.82.055-.034.102-.076.154-.113a.321.321 0 0 0 .144-.303 13.132 13.132 0 0 1-.03-.7c-.005-.34-.002-.679.005-1.02.005-.201-.04-.402.02-.603.008-.022-.02-.057-.032-.086l.002.002-.007-.411c.007-.002.015-.008.022-.01l-.022.002c-.02-.346-.102-.683-.082-1.04.032-.57-.002-1.139-.022-1.711-.01-.285-.003-.57-.063-.852a.797.797 0 0 1 0-.255.676.676 0 0 0-.014-.315.286.286 0 0 1-.003-.158c.072-.285-.01-.573 0-.857.008-.22-.02-.444-.042-.667a.266.266 0 0 0-.077-.163c-.164-.151-.348-.287-.34-.547 0-.02-.038-.043-.06-.062-.147-.137-.145-.161.005-.29.454-.387.942-.733 1.406-1.102.641-.508 1.317-.971 1.944-1.501a13.84 13.84 0 0 1 1.69-1.206c.044-.028.09-.06.136-.085.087-.05.164-.034.232.04a1 1 0 0 1 .079.1c.286.38.27.514-.1.819a5.349 5.349 0 0 1-.355.27c-.131.094-.156.21-.112.361.03.1.15.206.01.315.144.206-.03.324-.149.488.062.017.114.02.147.047.044.037.094.092.102.144.012.091 0 .19-.01.284-.008.085-.035.164.04.238.024.025.037.082.032.12-.06.398.022.797.012 1.195-.002.137-.025.275-.037.412-.05.014-.104.022-.147.05-.022.014-.022.061-.032.096.04-.003.095.01.114-.013.033-.034.043-.091.063-.138.116.18.101.386.109.587.007.265-.008.53.007.795.015.252.047.505.005.758-.01.059.008.126.018.188.007.062.03.126.03.188-.006.265-.02.528-.023.793-.002.389-.025.78.052 1.166a.27.27 0 0 0-.027.015c-.005.03.005.022.012.017Zm-1.411 1.917c.007.003.012.008.02.01l-.023-.007-.01-.025.013.022Zm.554-8.218c.037.043.075.072.124.02l-.08-.072c-.002-.01 0-.024-.004-.03-.025-.026-.05-.056-.08-.076-.007-.005-.05.02-.05.027a.385.385 0 0 0 .035.107c.008.012.035.017.055.024Zm-.68 2.722-.05-.03c-.006-.002-.016.003-.023.003l.075.023-.008.03c-.012.056-.055.12.02.163.017.01.072-.003.08-.02.034-.072-.023-.112-.07-.151-.008-.005-.017-.01-.025-.018ZM9.696 28.693c-.025.047-.008.092.04.1a.254.254 0 0 0 .146-.03c.057-.035.092-.09.055-.161-.035-.07-.09-.127-.172-.117-.1.013-.05.097-.06.151a.543.543 0 0 1-.012.062l.003-.005Zm4.557 8.506c-.273-.144-.569-.258-.81-.441a27.121 27.121 0 0 0-.745-.545c-.445-.312-.828-.694-1.196-1.09-.136-.149-.136-.149-.149-.354-.189-.023-.189-.023-.28-.154-.05-.07-.093-.146-.152-.203a.537.537 0 0 0-.192-.106c-.082-.033-.099.057-.146.091a.447.447 0 0 1-.167.087c-.191.042-.296.2-.427.317-.062.054-.07.136-.003.198.231.206.45.424.622.681.034.052.097.082.144.124.064.057.124.116.189.173.111.097.23.186.333.293.154.16.437.195.474.475.003.015.033.025.05.037.268.154.534.31.805.456.234.126.477.233.709.364.104.06.203.104.318.134.278.072.566.121.783.337.171.04.342.153.516.03a2.06 2.06 0 0 0 .433-.422c-.105-.13-.254-.136-.375-.188-.058-.025-.132-.025-.18-.06-.166-.126-.365-.17-.556-.237.007-.005.017-.007.022-.015.005-.005.003-.012.005-.02-.01.013-.017.025-.025.038Zm-3.34-9.405c.065.07.137.134.19.21.215.31.516.536.79.786.124.114.28.19.43.275.285.166.579.32.86.49.243.146.454.104.678-.054.305-.216.623-.412.937-.615.062-.04.126-.081.184-.128.119-.1.111-.149-.015-.24-.311-.226-.632-.442-.927-.682a4.659 4.659 0 0 1-.666-.641c-.214-.263-.455-.503-.612-.815-.141-.285-.34-.54-.494-.817a1.847 1.847 0 0 1-.164-.446c-.023-.082-.033-.164-.092-.23-.124-.142-.152-.32-.211-.491-.058-.163-.19-.305-.224-.488-.003-.01-.003-.022-.005-.032-.037-.156-.07-.312-.11-.466a6.603 6.603 0 0 1-.233-1.476c-.003-.052-.005-.106-.01-.158-.027-.434-.055-.87-.085-1.303-.01-.149-.03-.295-.034-.444-.008-.19-.043-.39.007-.57.067-.25.06-.502.087-.755.008-.067-.02-.138-.037-.235-.075.05-.15.072-.172.119a2.851 2.851 0 0 0-.199.498c-.096.364-.265.693-.457 1.015-.032.052-.07.112-.072.169-.007.186-.08.349-.146.517-.097.243-.259.47-.232.753-.126.278-.096.585-.154.875a3.238 3.238 0 0 0-.07.913c.008.082-.014.166-.024.25-.008.053-.032.11-.02.157.077.297-.045.609.077.904.06.143.085.302.124.453l-.025.047a.43.43 0 0 1 .055-.012c.025.163.097.33-.037.483-.008.01.015.067.025.069.159.017.161.141.191.255.05.193.08.396.164.575.15.312.33.609.502.909.072.129.154.25.231.376-.002.01-.007.017-.01.027 0-.007.003-.017.005-.027Zm10.458-11.44c.008.002.018.007.025.01l-.03-.008c-.005-.381-.007-.763-.017-1.144 0-.035-.028-.089-.055-.099-.03-.01-.08.015-.11.04-.372.284-.745.572-1.115.857-.05.04-.097.084-.144.128a.332.332 0 0 0-.105.255c-.005.16-.03.315-.047.474-.005.042-.027.094-.01.121.092.144.04.285.013.43-.025.132.02.442.062.56.02.058.022.124.024.186.02.36.05.719.055 1.08.003.25-.005.503.003.753.005.216-.047.431.027.647.015.042 0 .104-.02.15-.05.122-.074.248-.015.365.132.248.055.523.122.778-.067.198-.025.4-.022.601 0 .246.052.498.002.731-.062.28.092.547-.007.817.087.365.08.736.077 1.108 0 .071.017.146.022.22.023.307.09.612.012.919a.897.897 0 0 0 .025.498c.035.109.028.23.043.344.04.292-.063.592.06.88.022.054.002.125-.003.187-.01.223-.03.444-.03.667 0 .2.075.399-.012.6-.013.026-.003.061.002.093.017.124.04.248.05.372.012.168-.013.339.047.505.02.055-.005.124-.015.188-.02.146-.062.29.022.434.025.042.015.104.015.156 0 .423.01.85-.002 1.273-.01.29.002.572.112.844.027.07.09.092.154.057a.6.6 0 0 0 .104-.072c.318-.267.636-.532.95-.807.159-.139.26-.312.193-.537a.526.526 0 0 1 .067-.459c.063-.094.05-.168-.022-.257a.708.708 0 0 1-.144-.48c.01-.221.047-.442.047-.662-.005-.369-.052-.738-.05-1.107 0-.02-.01-.042-.012-.062-.012-.114-.037-.23-.032-.344.01-.297-.038-.592.002-.89.015-.113-.017-.232-.025-.349-.01-.158-.027-.317-.02-.475a1.87 1.87 0 0 0-.027-.409 2.174 2.174 0 0 1-.022-.634c.035-.253-.047-.51.057-.755.007-.018 0-.043-.005-.062-.06-.198-.04-.4-.04-.6 0-.158-.03-.317-.035-.475-.01-.265-.06-.528-.01-.793.003-.007.005-.015.01-.022a.073.073 0 0 0-.005.025c-.017-.062-.042-.122-.047-.184a14.952 14.952 0 0 1-.03-.668c-.002-.169-.024-.347.015-.508.085-.35-.012-.696.025-1.043-.11-.262-.06-.545-.087-.815-.054-.525-.047-1.057-.06-1.587a.711.711 0 0 1 .03-.283c.055-.133.092-.25-.017-.376-.027-.03-.007-.102-.005-.154.005-.104.02-.21.015-.312-.01-.19-.04-.379-.05-.57-.012-.123.005-.237.015-.351Zm.557-4.778c-.11-.01-.182-.027-.251-.022-.201.012-.403.054-.604.047-.393-.015-.786.012-1.178.015-.288.002-.574.017-.86.012-.383-.005-.758-.077-1.146-.03-.315.038-.638.013-.959.018a.777.777 0 0 0-.42.136c-.263.178-.544.334-.73.604-.036.052-.093.09-.142.13-.172.143-.346.284-.517.425-.09.072-.182.141-.229.28.234.037.445.082.669.025.092-.025.189-.025.283-.027.487-.01.974.104 1.464-.003.04-.007.084.008.127.01l.979.052c.032.003.062-.007.094-.012.388-.067.778-.124 1.176-.11a.726.726 0 0 0 .527-.185c.121-.104.25-.198.377-.295.4-.302.803-.6 1.2-.904.05-.035.08-.092.14-.166Zm.196 5.209v-.052c-.022 0-.047 0-.07.002.006.018.008.04.02.05.01.007.033 0 .05 0Zm-12.28 9.107c-.012.025-.027.047-.034.072 0 .002.04.027.045.025.017-.02.03-.045.044-.067a.48.48 0 0 0-.054-.03Zm13.17 1.124c-.025.03-.055.053-.055.072.003.023.032.042.05.065.02-.018.052-.035.054-.055.003-.025-.024-.047-.05-.082Zm-.84-10.79c-.013.012-.033.024-.035.039-.003.012.012.03.02.047a.435.435 0 0 1 .055-.05.58.58 0 0 1-.04-.037Zm-3.29 11.355c-.013.01-.026.018-.035.027-.003.003.007.018.014.02.008.003.025-.002.025-.002a.28.28 0 0 0-.005-.045Zm3.414-1.701c-.017.007-.042.007-.05.022-.005.007.01.032.015.05l.07-.03c-.013-.015-.025-.027-.035-.042Zm-.38-10.693c.005-.014.015-.03.017-.047a.07.07 0 0 0-.022-.015c-.015.01-.027.023-.04.035.015.01.03.02.045.027ZM11.55 30.023l.015.02.01-.022-.024.002Zm11.71.488c-.002.008-.01.018-.004.023.002.007.015.01.022.014l.013-.037h-.03Zm-4.376-2.036-.017.013.02.01-.003-.023Zm-7.343-5.409-.005.022.02-.005-.015-.017Zm-1.109-3.358c-.01.002-.022.004-.025.01-.002.007.005.017.008.027.01-.003.022-.005.025-.01.002-.008-.005-.02-.008-.027ZM22.61 15.14c.005-.007.007-.015.012-.022-.007-.002-.017-.01-.022-.01-.005.003-.008.015-.013.022.008.003.015.008.023.01Zm-.56 4.161.015.02.01-.022-.024.002Zm-3.476-.193.002.03a.844.844 0 0 0 .043-.015c-.006-.008-.01-.02-.018-.022-.007-.003-.017.005-.027.007Zm-9.099 16.2c0-.007.003-.02-.002-.024-.005-.005-.018-.005-.025-.008l.002.043a.074.074 0 0 1 .025-.01Zm12.54-17.89-.002.02.018-.004-.015-.015Zm-.198 1.205.022.014.005-.024-.027.01Zm-9.19.663-.02-.002.007.02.013-.018Zm9.672-4.775.012-.015-.017-.002.005.017Zm-13.954 21.7.022.007c.002-.008.007-.018.005-.02a.055.055 0 0 0-.022-.01.071.071 0 0 1-.005.022Z"/><path d="m18.608 23.77-.01.022.012-.02-.002-.002Zm-8.917 4.925.02.008-.017-.01-.003.002Z"/></svg>